<?xml version="1.0" standalone="no"?>
<!DOCTYPE svg PUBLIC "-//W3C//DTD SVG 20010904//EN"
 "http://www.w3.org/TR/2001/REC-SVG-20010904/DTD/svg10.dtd">
<svg version="1.0" xmlns="http://www.w3.org/2000/svg"
 width="540.000000pt" height="540.000000pt" viewBox="0 0 540.000000 540.000000"
 preserveAspectRatio="xMidYMid meet">
<metadata>
Created by potrace 1.16, written by Peter Selinger 2001-2019
</metadata>
<g transform="translate(0.000000,540.000000) scale(0.100000,-0.100000)"
fill="#000000" stroke="none">
<path d="M2615 5288 c-9 -74 -28 -127 -67 -186 -15 -24 -28 -45 -28 -48 0 -22
-146 -132 -215 -160 l-70 -29 -475 -5 -475 -6 -85 -28 c-123 -41 -200 -80
-288 -145 -71 -53 -206 -195 -220 -231 -3 -8 -20 -40 -38 -70 -19 -30 -43 -82
-54 -115 -47 -133 -53 -197 -60 -660 -8 -505 -6 -495 -97 -626 -54 -78 -200
-175 -281 -185 -20 -3 -52 -7 -69 -10 l-33 -5 0 -103 0 -103 73 -13 c189 -33
328 -158 391 -354 14 -42 16 -111 16 -456 0 -359 2 -418 19 -511 22 -117 38
-168 78 -242 120 -224 274 -353 519 -435 122 -41 168 -45 629 -51 381 -6 456
-9 491 -23 41 -16 84 -38 94 -48 3 -3 27 -23 54 -44 75 -60 147 -181 160 -267
4 -24 9 -56 12 -72 l6 -27 103 0 103 0 6 57 c21 175 141 329 316 402 28 12
125 16 505 22 473 7 520 11 608 47 16 7 32 12 37 12 21 0 179 82 232 121 77
56 185 171 231 245 20 34 37 65 37 69 0 4 8 19 18 33 29 42 60 148 76 263 13
83 16 198 16 512 l0 406 47 91 c77 152 208 249 362 271 36 5 69 13 74 18 4 4
6 50 5 101 l-3 94 -80 16 c-168 34 -289 130 -370 295 l-30 60 -6 460 c-6 554
-11 588 -110 771 -74 139 -153 227 -279 312 -79 53 -123 72 -260 118 l-85 29
-470 6 c-500 6 -495 5 -595 58 -65 34 -157 127 -196 198 -24 42 -40 90 -51
148 l-16 85 -102 0 -103 0 -7 -62z m-137 -1885 c59 -37 79 -124 42 -186 -39
-65 -51 -67 -434 -67 -371 0 -381 -1 -496 -60 -64 -33 -143 -118 -181 -197
-32 -66 -33 -72 -33 -193 0 -121 1 -127 33 -193 38 -79 117 -164 181 -197 115
-59 125 -60 496 -60 302 0 348 -2 379 -17 69 -33 95 -124 55 -190 -39 -65 -29
-63 -446 -66 -369 -2 -381 -1 -448 21 -85 27 -205 85 -234 112 -12 11 -23 20
-26 20 -13 0 -114 111 -151 165 -174 256 -166 593 20 839 31 41 122 136 131
136 3 0 14 9 26 20 26 24 148 84 215 106 78 26 189 31 528 26 255 -3 325 -7
343 -19z m1301 -3 c79 -25 200 -83 229 -110 12 -11 23 -20 26 -20 13 0 114
-111 151 -165 62 -91 87 -150 110 -258 37 -170 2 -377 -88 -522 -36 -58 -157
-195 -173 -195 -3 0 -14 -9 -26 -20 -29 -27 -149 -85 -234 -112 -67 -22 -79
-23 -448 -21 -417 3 -407 1 -446 66 -40 66 -14 157 55 190 31 15 77 17 378 17
370 0 389 3 497 59 65 35 143 120 181 198 31 64 33 74 33 183 1 97 -3 124 -22
176 -44 116 -135 205 -261 256 -54 22 -71 23 -421 28 -401 5 -404 6 -440 67
-37 63 -20 140 39 182 26 19 46 21 222 24 359 7 566 -1 638 -23z m-457 -570
c20 -6 50 -25 67 -42 27 -28 31 -39 31 -88 0 -49 -4 -60 -31 -88 -17 -17 -47
-36 -67 -42 -23 -6 -257 -10 -622 -10 -365 0 -599 4 -622 10 -20 6 -50 25 -67
42 -27 28 -31 39 -31 88 0 49 4 60 31 88 17 18 46 36 63 41 44 13 1201 14
1248 1z"/>
</g>
</svg>
